<svg width="22" height="25" viewBox="0 0 22 25" fill="none" xmlns="http://www.w3.org/2000/svg">
<path d="M9.63189 12.8537C7.48189 13.7337 7.02189 11.8637 7.34189 11.6037C7.46189 11.4837 7.58189 11.5037 7.66189 11.6237C7.74189 11.6837 7.89189 11.7937 8.00189 11.7437C10.6419 10.9137 12.8019 5.57367 11.5419 4.99367C10.8719 4.75367 8.63189 4.84367 5.03189 9.82367C1.13189 15.1537 2.03189 19.1337 4.54189 19.1737C7.07189 19.1337 8.55189 15.8437 8.16189 15.5237C8.02189 15.4037 7.90189 14.8437 8.40189 14.9737C9.64189 15.3737 9.80189 17.0837 7.99189 18.9837C4.54189 22.5337 -1.97811 17.9137 2.13189 10.7637C6.66189 2.83367 11.4619 3.95367 11.4619 3.96367C15.7219 5.56367 11.7419 12.0237 9.64189 12.8737L9.63189 12.8537Z" fill="black"/>
<path d="M19.8273 16.7049C21.7219 17.6196 21.2254 19.9193 20.7942 19.9585C20.4937 19.9846 20.5459 19.6188 20.4414 19.462C20.4414 19.462 19.1478 17.3974 13.0718 19.6057C9.11259 21.043 8.74672 19.5796 8.66832 19.0961C8.60299 18.678 8.86432 18.7041 8.86432 18.7041C8.95579 18.7041 8.95579 18.8478 9.11259 18.9524C9.56992 19.3836 10.1841 19.2921 10.8635 19.0308C10.5107 18.7825 9.97499 18.2729 9.97499 17.1884C9.97499 14.5097 16.3646 8.60358 16.3646 6.82651C16.3646 5.79424 14.3001 3.72971 10.563 8.00251C8.34165 10.5766 8.57685 12.615 9.25632 12.615C9.51765 12.615 9.40005 12.8502 9.29552 12.9678C9.09952 13.1508 6.65605 13.4513 6.65605 10.9556C6.65605 8.90411 11.2817 4.10864 14.8358 4.10864C16.3123 4.10864 17.8542 5.46758 17.6843 7.50598C17.5014 9.80571 12.3401 15.8164 12.3401 17.7633C12.3401 17.9985 12.3531 18.2206 12.4185 18.4036C12.523 18.3644 12.6406 18.3121 12.7321 18.286C16.1555 17.0054 18.8995 16.2606 19.8273 16.7049Z" fill="black"/>
</svg>
